HIERARCHY
ROOT root
{
	OFFSET 0.000000 0.000000 0.000000
	CHANNELS 6 Xposition Yposition Zposition Zrotation Yrotation Xrotation
	JOINT lhip
	{
		OFFSET 0.058581 -0.082280 -0.017664
		CHANNELS 3 Zrotation Yrotation Xrotation
		JOINT lknee
		{
			OFFSET 0.043451 -0.386469 0.008037
			CHANNELS 3 Zrotation Yrotation Xrotation
			JOINT lankle
			{
				OFFSET -0.014790 -0.426874 -0.037428
				CHANNELS 3 Zrotation Yrotation Xrotation
				JOINT ltoe
				{
					OFFSET 0.041054 -0.060286 0.122042
					CHANNELS 3 Zrotation Yrotation Xrotation
					End Site
					{
						OFFSET 0.000000 0.000000 0.000000
					}
				}
			}
		}
	}
	JOINT rhip
	{
		OFFSET -0.060310 -0.090513 -0.013543
		CHANNELS 3 Zrotation Yrotation Xrotation
		JOINT rknee
		{
			OFFSET -0.043257 -0.383688 -0.004843
			CHANNELS 3 Zrotation Yrotation Xrotation
			JOINT rankle
			{
				OFFSET 0.019056 -0.420046 -0.034562
				CHANNELS 3 Zrotation Yrotation Xrotation
				JOINT rtoe
				{
					OFFSET -0.034840 -0.062106 0.130323
					CHANNELS 3 Zrotation Yrotation Xrotation
					End Site
					{
						OFFSET 0.000000 0.000000 0.000000
					}
				}
			}
		}
	}
	JOINT lowerback
	{
		OFFSET 0.004439 0.124404 -0.038385
		CHANNELS 3 Zrotation Yrotation Xrotation
		JOINT upperback
		{
			OFFSET 0.004488 0.137956 0.026820
			CHANNELS 3 Zrotation Yrotation Xrotation
			JOINT chest
			{
				OFFSET -0.002265 0.056032 0.002855
				CHANNELS 3 Zrotation Yrotation Xrotation
				JOINT lowerneck
				{
					OFFSET -0.013390 0.211636 -0.033468
					CHANNELS 3 Zrotation Yrotation Xrotation
					JOINT upperneck
					{
						OFFSET 0.010113 0.088937 0.050410
						CHANNELS 3 Zrotation Yrotation Xrotation
						End Site
						{
							OFFSET 0.000000 0.000000 0.000000
						}
					}
				}
				JOINT lclavicle
				{
					OFFSET 0.071702 0.114000 -0.018898
					CHANNELS 3 Zrotation Yrotation Xrotation
					JOINT lshoulder
					{
						OFFSET 0.122921 0.045205 -0.019046
						CHANNELS 3 Zrotation Yrotation Xrotation
						JOINT lelbow
						{
							OFFSET 0.255332 -0.015649 -0.022946
							CHANNELS 3 Zrotation Yrotation Xrotation
							JOINT lwrist
							{
								OFFSET 0.265709 0.012698 -0.007375
								CHANNELS 3 Zrotation Yrotation Xrotation
								End Site
								{
									OFFSET 0.000000 0.000000 0.000000
								}
							}
						}
					}
				}
				JOINT rclavicle
				{
					OFFSET -0.082954 0.112472 -0.023707
					CHANNELS 3 Zrotation Yrotation Xrotation
					JOINT rshoulder
					{
						OFFSET -0.113228 0.046853 -0.008472
						CHANNELS 3 Zrotation Yrotation Xrotation
						JOINT relbow
						{
							OFFSET -0.260127 -0.014369 -0.031269
							CHANNELS 3 Zrotation Yrotation Xrotation
							JOINT rwrist
							{
								OFFSET -0.269108 0.006794 -0.006027
								CHANNELS 3 Zrotation Yrotation Xrotation
								End Site
								{
									OFFSET 0.000000 0.000000 0.000000
								}
							}
						}
					}
				}
			}
		}
	}
}
MOTION
Frames: 11
Frame Time: 0.033333
0.662255 0.456635 0.575369 -138.987323 -25.815957 149.064087 9.556965 5.785290 -50.564616 -9.373887 7.557887 72.589883 -2.291319 4.843009 -23.629913 0.000000 -0.000000 0.000000 -6.654444 10.798963 -81.636374 -4.343926 -14.824828 111.627244 3.330815 -11.247184 3.294588 0.000000 -0.000000 0.000000 -2.627580 -6.280443 44.138001 4.484245 -3.699486 -11.803956 3.422303 -7.706086 -11.857374 -8.897402 0.732608 17.234082 -1.902294 2.480032 -11.040495 -21.959731 -39.838275 9.081285 -15.224786 -40.356968 0.842950 4.261233 -18.658725 -20.550776 52.946008 -5.396564 -14.407961 13.088291 26.520634 3.424604 -5.613939 32.629746 -8.267682 -2.555272 22.333389 4.528672 -58.655299 13.632681 -11.386080 
0.658543 0.451272 0.580936 -140.339073 -25.493289 149.754219 8.364918 6.205763 -50.023051 -9.558447 8.412153 71.663364 -1.765948 5.273273 -24.742770 0.000000 -0.000000 0.000000 -7.585192 7.390435 -81.119008 -4.384864 -15.382796 112.709530 4.475216 -10.388265 -0.364597 0.000000 -0.000000 0.000000 -2.087381 -6.176196 44.348748 4.273978 -3.717383 -11.784394 3.339625 -7.598192 -11.852561 -8.863989 0.955034 16.558322 -2.392905 2.485525 -10.932171 -21.586897 -40.218953 8.592443 -14.690629 -40.512596 0.225871 3.826327 -18.390747 -20.845948 53.783707 -4.966292 -14.783394 12.816393 26.958738 3.487538 -7.427606 32.538863 -9.642118 -2.734395 22.497526 3.753501 -59.640857 14.830683 -10.363518 
0.654991 0.445852 0.584594 -141.545632 -24.847400 150.374049 7.692566 6.859206 -49.684982 -10.006509 9.231461 71.225273 -1.162987 5.405918 -25.640259 0.000000 -0.000000 0.000000 -8.442927 4.000393 -80.884421 -4.681160 -15.174331 114.295696 3.992899 -11.684867 -1.656070 0.000000 -0.000000 0.000000 -1.517665 -5.758642 44.091684 4.102549 -3.590457 -11.441396 3.391899 -7.586541 -11.905045 -9.134569 0.683810 16.028953 -2.707707 2.968493 -10.710952 -21.622261 -40.655827 8.786478 -13.746876 -40.513605 -0.794478 3.259727 -18.419691 -20.967059 54.731519 -4.461506 -15.222993 12.700262 27.430897 3.737501 -9.534314 32.141097 -11.063649 -2.283394 22.574302 3.547998 -59.436587 15.778099 -9.321421 
0.650867 0.440391 0.586635 -142.555624 -24.137834 150.536564 7.177949 7.394543 -49.215397 -10.490821 9.850508 71.379738 -0.724613 5.542935 -26.473456 0.000000 -0.000000 0.000000 -9.890033 0.908042 -80.554927 -5.007260 -14.738962 116.103916 3.842287 -12.451658 -2.925799 0.000000 -0.000000 0.000000 -0.904413 -5.478111 44.060744 3.943398 -3.334554 -11.071198 3.352702 -7.486526 -12.105254 -9.330743 0.427107 15.568098 -3.143756 3.286593 -10.124523 -22.122126 -41.061797 9.142630 -12.851519 -40.427975 -1.493526 2.634634 -18.493796 -21.230922 55.235336 -4.168715 -15.695838 12.999802 27.945891 4.159844 -11.751409 31.517506 -12.168905 -1.750488 22.603601 3.398649 -58.720273 16.557114 -8.344214 
0.646872 0.435352 0.587141 -143.499412 -23.119902 150.604729 6.957309 7.936587 -48.792163 -10.598948 10.529209 71.915489 -0.425116 5.796176 -27.254020 0.000000 -0.000000 0.000000 -11.334190 -1.622298 -80.490191 -4.790520 -14.440162 117.362612 4.464899 -11.809004 -3.910125 0.000000 -0.000000 0.000000 -0.335994 -5.095194 44.023081 3.840838 -3.037256 -10.807584 3.288845 -7.244965 -12.307791 -9.491068 0.437165 15.102516 -3.709885 3.320354 -9.206077 -22.242074 -41.257267 8.998949 -12.916372 -40.584941 -1.680053 2.224958 -18.210700 -21.403470 55.568489 -3.970184 -15.931656 13.398764 28.346302 4.577079 -13.519812 31.133789 -13.305157 -1.466975 22.558153 3.376016 -57.682315 17.276905 -7.351748 
0.643115 0.431053 0.587081 -144.442474 -21.879858 150.653112 6.932261 8.092790 -48.504987 -10.429430 11.145494 72.723123 -0.081965 6.345741 -27.811567 0.000000 -0.000000 0.000000 -12.595418 -3.298014 -80.491203 -4.368632 -14.474965 117.944667 5.463724 -10.791278 -3.296977 0.000000 -0.000000 0.000000 -0.006308 -4.429286 44.006493 3.749084 -2.581369 -10.610611 3.326806 -7.003325 -12.382486 -9.570717 0.485162 14.882942 -4.094123 3.279224 -8.742803 -22.079993 -41.534199 8.973677 -13.236762 -40.882656 -1.660940 2.155862 -17.812216 -21.920460 55.717648 -3.849457 -16.139268 13.424529 28.588676 4.829260 -14.604839 30.822086 -13.865644 -1.584985 22.470298 3.187655 -56.686337 17.509363 -6.801390 
0.639433 0.427432 0.586225 -145.294266 -20.762150 150.791425 6.983325 7.736685 -48.578493 -9.943770 11.873999 73.812489 0.198745 7.124070 -28.014885 0.000000 -0.000000 0.000000 -13.276539 -4.509140 -80.454260 -3.896670 -14.917140 117.939178 6.792463 -9.385328 -2.012863 0.000000 -0.000000 0.000000 0.242653 -3.928766 43.759273 3.683205 -2.299777 -10.269458 3.256283 -6.695929 -12.621170 -9.742215 0.547441 14.945914 -4.377298 3.351306 -8.503322 -21.809053 -41.560649 8.804044 -13.868916 -41.060837 -1.344560 2.125963 -17.665504 -22.311905 55.912711 -3.661545 -16.325067 13.282443 28.665619 4.907512 -15.169673 30.870072 -14.355489 -1.472991 22.315096 3.236887 -55.960363 17.656355 -6.397848 
0.635388 0.424544 0.584358 -146.067920 -19.925575 150.476705 6.794034 6.959275 -48.357581 -9.273930 12.273420 75.122742 0.578236 8.240816 -27.958422 0.000000 -0.000000 0.000000 -13.425174 -5.248986 -79.588341 -3.531245 -15.245528 117.561433 7.506706 -8.794120 -1.379747 0.000000 -0.000000 0.000000 0.428341 -3.574137 43.809430 3.480451 -2.247741 -9.703195 3.145957 -6.447263 -12.916009 -9.948038 0.470513 14.817770 -4.425094 3.541917 -8.190354 -21.555282 -41.565428 8.468426 -14.384006 -40.914161 -0.861923 1.974919 -17.906900 -22.514093 56.331612 -3.369088 -16.460413 13.183035 29.004811 5.174175 -15.522195 30.291315 -14.401148 -1.403569 22.690862 3.061508 -55.710294 17.824934 -6.197728 
0.631840 0.422261 0.581845 -146.795826 -19.119152 150.151183 6.524774 6.310781 -48.138633 -8.306111 12.642047 76.548707 0.754433 9.328781 -27.971576 0.000000 -0.000000 0.000000 -12.991331 -5.023033 -78.991434 -3.138232 -14.809007 117.073374 7.920194 -8.599600 -0.845722 0.000000 -0.000000 0.000000 0.430414 -3.217531 43.839019 3.226187 -2.068160 -9.428709 3.054820 -6.324633 -12.924250 -9.977163 0.528708 14.641418 -4.496451 3.552186 -7.906448 -21.553580 -41.431547 8.410220 -14.881060 -40.749686 -0.398298 2.108960 -18.383221 -22.580040 56.662251 -3.133731 -16.655770 13.241339 29.106601 5.216648 -15.675821 30.167684 -14.282539 -1.270338 22.808963 3.375528 -55.801580 17.758015 -6.265492 
0.629502 0.420233 0.579775 -147.579025 -18.155407 150.365110 6.324020 5.757619 -48.473877 -7.136254 12.990003 77.886715 1.010382 10.306773 -27.976231 0.000000 -0.000000 0.000000 -12.544815 -4.002637 -79.504199 -2.865523 -13.801462 117.300685 8.005906 -8.419837 -0.826692 0.000000 -0.000000 0.000000 0.239097 -2.824593 43.390934 2.997286 -1.783750 -9.383189 2.891418 -6.116109 -12.818470 -9.862926 0.756156 14.486226 -4.599769 3.383870 -7.703679 -21.148414 -41.095474 7.993144 -15.840052 -40.932941 0.339359 2.111113 -18.372252 -22.501547 57.038717 -2.914329 -16.758287 13.316017 29.027598 5.265628 -15.500404 30.480864 -14.215444 -1.355568 22.648714 3.598657 -55.963454 17.797338 -6.285013 
0.627013 0.418377 0.578286 -148.219179 -17.247300 150.424524 6.181807 5.029577 -48.670524 -6.147716 13.185562 79.067901 1.450908 11.556785 -27.976403 0.000000 -0.000000 0.000000 -12.561623 -2.920019 -79.980089 -2.486085 -13.186296 117.710912 7.897305 -8.266204 -0.725870 0.000000 -0.000000 0.000000 -0.012127 -2.427583 43.015859 2.848576 -1.426616 -9.078739 2.771390 -5.812778 -12.864240 -9.744342 0.724841 14.261861 -4.364956 3.089107 -7.797702 -20.651495 -41.125446 7.718619 -16.887911 -41.079691 1.091782 2.454803 -18.264217 -22.674324 56.829276 -2.596159 -16.749664 13.034379 29.070696 5.472665 -14.915225 30.151824 -13.749861 -1.885270 22.787953 3.419181 -55.173666 17.098958 -6.575255 
